<svg width="32" height="33" viewBox="0 0 32 33" fill="none" xmlns="http://www.w3.org/2000/svg">
<rect x="0.25" y="0.25" width="31.5" height="31.5" rx="10.75" fill="white" stroke="black" stroke-width="0.5"/>
<path d="M17.8027 6.09375H21.9043V19.875C21.9043 21.1419 21.6217 22.263 21.0566 23.2383C20.5007 24.2044 19.7122 24.9518 18.6914 25.4805C17.6706 26.0091 16.5176 26.2734 15.2324 26.2734C13.127 26.2734 11.4863 25.7402 10.3105 24.6738C9.13477 23.5983 8.54688 22.0807 8.54688 20.1211H12.6758C12.6758 21.0964 12.8809 21.8164 13.291 22.2812C13.7012 22.7461 14.3483 22.9785 15.2324 22.9785C16.0163 22.9785 16.6406 22.7096 17.1055 22.1719C17.5703 21.6341 17.8027 20.8685 17.8027 19.875V6.09375Z" fill="black"/>
</svg>
