<svg width="1152" height="700" viewBox="0 0 1152 700" fill="none" xmlns="http://www.w3.org/2000/svg">
<rect width="1152" height="700" fill="white"/>
<path d="M339.191 191.613C339.191 204.309 337.023 213.742 332.688 219.914C328.352 226.086 321.574 229.172 312.355 229.172C303.254 229.172 296.516 226.164 292.141 220.148C287.766 214.094 285.5 205.07 285.344 193.078V178.605C285.344 166.066 287.512 156.75 291.848 150.656C296.184 144.562 302.98 141.516 312.238 141.516C321.418 141.516 328.176 144.465 332.512 150.363C336.848 156.223 339.074 165.285 339.191 177.551V191.613ZM328.352 176.789C328.352 167.609 327.062 160.93 324.484 156.75C321.906 152.531 317.824 150.422 312.238 150.422C306.691 150.422 302.648 152.512 300.109 156.691C297.57 160.871 296.262 167.297 296.184 175.969V193.312C296.184 202.531 297.512 209.348 300.168 213.762C302.863 218.137 306.926 220.324 312.355 220.324C317.707 220.324 321.672 218.254 324.25 214.113C326.867 209.973 328.234 203.449 328.352 194.543V176.789ZM406.574 191.613C406.574 204.309 404.406 213.742 400.07 219.914C395.734 226.086 388.957 229.172 379.738 229.172C370.637 229.172 363.898 226.164 359.523 220.148C355.148 214.094 352.883 205.07 352.727 193.078V178.605C352.727 166.066 354.895 156.75 359.23 150.656C363.566 144.562 370.363 141.516 379.621 141.516C388.801 141.516 395.559 144.465 399.895 150.363C404.23 156.223 406.457 165.285 406.574 177.551V191.613ZM395.734 176.789C395.734 167.609 394.445 160.93 391.867 156.75C389.289 152.531 385.207 150.422 379.621 150.422C374.074 150.422 370.031 152.512 367.492 156.691C364.953 160.871 363.645 167.297 363.566 175.969V193.312C363.566 202.531 364.895 209.348 367.551 213.762C370.246 218.137 374.309 220.324 379.738 220.324C385.09 220.324 389.055 218.254 391.633 214.113C394.25 209.973 395.617 203.449 395.734 194.543V176.789ZM419.719 209.426C421.32 207.46 423.404 206.477 425.969 206.477C430.435 206.477 432.688 208.996 432.727 214.035V228H429.113V214.016C429.1 212.492 428.749 211.366 428.059 210.637C427.382 209.908 426.32 209.543 424.875 209.543C423.703 209.543 422.674 209.855 421.789 210.48C420.904 211.105 420.214 211.926 419.719 212.941V228H416.105V198H419.719V209.426ZM525.754 191.613C525.754 204.309 523.586 213.742 519.25 219.914C514.914 226.086 508.137 229.172 498.918 229.172C489.816 229.172 483.078 226.164 478.703 220.148C474.328 214.094 472.062 205.07 471.906 193.078V178.605C471.906 166.066 474.074 156.75 478.41 150.656C482.746 144.562 489.543 141.516 498.801 141.516C507.98 141.516 514.738 144.465 519.074 150.363C523.41 156.223 525.637 165.285 525.754 177.551V191.613ZM514.914 176.789C514.914 167.609 513.625 160.93 511.047 156.75C508.469 152.531 504.387 150.422 498.801 150.422C493.254 150.422 489.211 152.512 486.672 156.691C484.133 160.871 482.824 167.297 482.746 175.969V193.312C482.746 202.531 484.074 209.348 486.73 213.762C489.426 218.137 493.488 220.324 498.918 220.324C504.27 220.324 508.234 218.254 510.812 214.113C513.43 209.973 514.797 203.449 514.914 194.543V176.789ZM593.137 191.613C593.137 204.309 590.969 213.742 586.633 219.914C582.297 226.086 575.52 229.172 566.301 229.172C557.199 229.172 550.461 226.164 546.086 220.148C541.711 214.094 539.445 205.07 539.289 193.078V178.605C539.289 166.066 541.457 156.75 545.793 150.656C550.129 144.562 556.926 141.516 566.184 141.516C575.363 141.516 582.121 144.465 586.457 150.363C590.793 156.223 593.02 165.285 593.137 177.551V191.613ZM582.297 176.789C582.297 167.609 581.008 160.93 578.43 156.75C575.852 152.531 571.77 150.422 566.184 150.422C560.637 150.422 556.594 152.512 554.055 156.691C551.516 160.871 550.207 167.297 550.129 175.969V193.312C550.129 202.531 551.457 209.348 554.113 213.762C556.809 218.137 560.871 220.324 566.301 220.324C571.652 220.324 575.617 218.254 578.195 214.113C580.812 209.973 582.18 203.449 582.297 194.543V176.789ZM606.066 206.867L606.164 209.211C607.714 207.388 609.803 206.477 612.434 206.477C615.389 206.477 617.401 207.609 618.469 209.875C619.172 208.859 620.083 208.039 621.203 207.414C622.336 206.789 623.671 206.477 625.207 206.477C629.842 206.477 632.199 208.931 632.277 213.84V228H628.664V214.055C628.664 212.544 628.319 211.418 627.629 210.676C626.939 209.921 625.78 209.543 624.152 209.543C622.811 209.543 621.698 209.947 620.812 210.754C619.927 211.548 619.413 212.622 619.27 213.977V228H615.637V214.152C615.637 211.079 614.133 209.543 611.125 209.543C608.755 209.543 607.134 210.552 606.262 212.57V228H602.648V206.867H606.066ZM725.363 191.613C725.363 204.309 723.195 213.742 718.859 219.914C714.523 226.086 707.746 229.172 698.527 229.172C689.426 229.172 682.688 226.164 678.312 220.148C673.938 214.094 671.672 205.07 671.516 193.078V178.605C671.516 166.066 673.684 156.75 678.02 150.656C682.355 144.562 689.152 141.516 698.41 141.516C707.59 141.516 714.348 144.465 718.684 150.363C723.02 156.223 725.246 165.285 725.363 177.551V191.613ZM714.523 176.789C714.523 167.609 713.234 160.93 710.656 156.75C708.078 152.531 703.996 150.422 698.41 150.422C692.863 150.422 688.82 152.512 686.281 156.691C683.742 160.871 682.434 167.297 682.355 175.969V193.312C682.355 202.531 683.684 209.348 686.34 213.762C689.035 218.137 693.098 220.324 698.527 220.324C703.879 220.324 707.844 218.254 710.422 214.113C713.039 209.973 714.406 203.449 714.523 194.543V176.789ZM792.746 191.613C792.746 204.309 790.578 213.742 786.242 219.914C781.906 226.086 775.129 229.172 765.91 229.172C756.809 229.172 750.07 226.164 745.695 220.148C741.32 214.094 739.055 205.07 738.898 193.078V178.605C738.898 166.066 741.066 156.75 745.402 150.656C749.738 144.562 756.535 141.516 765.793 141.516C774.973 141.516 781.73 144.465 786.066 150.363C790.402 156.223 792.629 165.285 792.746 177.551V191.613ZM781.906 176.789C781.906 167.609 780.617 160.93 778.039 156.75C775.461 152.531 771.379 150.422 765.793 150.422C760.246 150.422 756.203 152.512 753.664 156.691C751.125 160.871 749.816 167.297 749.738 175.969V193.312C749.738 202.531 751.066 209.348 753.723 213.762C756.418 218.137 760.48 220.324 765.91 220.324C771.262 220.324 775.227 218.254 777.805 214.113C780.422 209.973 781.789 203.449 781.906 194.543V176.789ZM814.582 222.395C814.582 221.418 814.211 220.663 813.469 220.129C812.74 219.582 811.457 219.113 809.621 218.723C807.798 218.332 806.346 217.863 805.266 217.316C804.198 216.77 803.404 216.118 802.883 215.363C802.375 214.608 802.121 213.71 802.121 212.668C802.121 210.936 802.85 209.471 804.309 208.273C805.78 207.076 807.655 206.477 809.934 206.477C812.329 206.477 814.27 207.095 815.754 208.332C817.251 209.569 818 211.151 818 213.078H814.367C814.367 212.089 813.944 211.236 813.098 210.52C812.264 209.803 811.21 209.445 809.934 209.445C808.618 209.445 807.59 209.732 806.848 210.305C806.105 210.878 805.734 211.626 805.734 212.551C805.734 213.423 806.079 214.081 806.77 214.523C807.46 214.966 808.703 215.389 810.5 215.793C812.31 216.197 813.775 216.678 814.895 217.238C816.014 217.798 816.841 218.475 817.375 219.27C817.922 220.051 818.195 221.008 818.195 222.141C818.195 224.029 817.44 225.546 815.93 226.691C814.419 227.824 812.46 228.391 810.051 228.391C808.358 228.391 806.861 228.091 805.559 227.492C804.257 226.893 803.234 226.06 802.492 224.992C801.763 223.911 801.398 222.746 801.398 221.496H805.012C805.077 222.707 805.559 223.671 806.457 224.387C807.368 225.09 808.566 225.441 810.051 225.441C811.418 225.441 812.512 225.168 813.332 224.621C814.165 224.061 814.582 223.319 814.582 222.395ZM870.129 215.871C870.129 220.103 869.406 223.247 867.961 225.305C866.516 227.362 864.257 228.391 861.184 228.391C858.15 228.391 855.904 227.388 854.445 225.383C852.987 223.365 852.232 220.357 852.18 216.359V211.535C852.18 207.355 852.902 204.25 854.348 202.219C855.793 200.188 858.059 199.172 861.145 199.172C864.204 199.172 866.457 200.155 867.902 202.121C869.348 204.074 870.09 207.095 870.129 211.184V215.871ZM866.516 210.93C866.516 207.87 866.086 205.643 865.227 204.25C864.367 202.844 863.007 202.141 861.145 202.141C859.296 202.141 857.948 202.837 857.102 204.23C856.255 205.624 855.819 207.766 855.793 210.656V216.438C855.793 219.51 856.236 221.783 857.121 223.254C858.02 224.712 859.374 225.441 861.184 225.441C862.967 225.441 864.289 224.751 865.148 223.371C866.021 221.991 866.477 219.816 866.516 216.848V210.93Z" fill="black"/>
<path d="M166.829 308.26C166.82 304.792 169.624 301.974 173.092 301.965L978.821 299.971C982.244 299.962 985.023 302.736 985.021 306.159V306.159C985.018 309.567 982.26 312.331 978.853 312.34L173.125 314.522C169.657 314.531 166.839 311.728 166.829 308.26V308.26Z" fill="#EAEAEA"/>
<rect x="201" y="365" width="78" height="33" rx="13" fill="#F2F2F2"/>
<rect x="289" y="365" width="78" height="33" rx="13" fill="#F2F2F2"/>
<rect x="721" y="365" width="105" height="33" rx="13" fill="#F2F2F2"/>
<path d="M732.138 382.166C732.138 380.707 732.483 379.535 733.175 378.65C733.866 377.76 734.771 377.314 735.891 377.314C737.004 377.314 737.886 377.695 738.536 378.457V373.5H740.162V387H738.668L738.589 385.98C737.938 386.777 737.033 387.176 735.873 387.176C734.771 387.176 733.872 386.725 733.175 385.822C732.483 384.92 732.138 383.742 732.138 382.289V382.166ZM733.764 382.351C733.764 383.429 733.986 384.272 734.432 384.882C734.877 385.491 735.492 385.796 736.277 385.796C737.309 385.796 738.062 385.333 738.536 384.407V380.039C738.05 379.143 737.303 378.694 736.295 378.694C735.498 378.694 734.877 379.002 734.432 379.617C733.986 380.232 733.764 381.144 733.764 382.351ZM748.564 387C748.471 386.812 748.395 386.479 748.336 385.998C747.58 386.783 746.678 387.176 745.629 387.176C744.691 387.176 743.921 386.912 743.317 386.385C742.72 385.852 742.421 385.178 742.421 384.363C742.421 383.373 742.796 382.605 743.546 382.061C744.302 381.51 745.362 381.234 746.728 381.234H748.31V380.487C748.31 379.919 748.14 379.468 747.8 379.134C747.46 378.794 746.959 378.624 746.297 378.624C745.717 378.624 745.23 378.771 744.838 379.063C744.445 379.356 744.249 379.711 744.249 380.127H742.614C742.614 379.652 742.781 379.195 743.115 378.756C743.455 378.311 743.912 377.959 744.486 377.701C745.066 377.443 745.702 377.314 746.394 377.314C747.489 377.314 748.348 377.59 748.969 378.141C749.59 378.686 749.912 379.438 749.936 380.399V384.776C749.936 385.649 750.047 386.344 750.27 386.859V387H748.564ZM745.866 385.761C746.376 385.761 746.859 385.629 747.316 385.365C747.773 385.102 748.104 384.759 748.31 384.337V382.386H747.035C745.043 382.386 744.047 382.969 744.047 384.135C744.047 384.645 744.217 385.043 744.557 385.33C744.896 385.617 745.333 385.761 745.866 385.761ZM757.081 378.949C756.835 378.908 756.568 378.888 756.281 378.888C755.215 378.888 754.491 379.342 754.11 380.25V387H752.484V377.49H754.066L754.093 378.589C754.626 377.739 755.382 377.314 756.36 377.314C756.677 377.314 756.917 377.355 757.081 377.438V378.949ZM761.238 382.597L760.219 383.66V387H758.593V373.5H760.219V381.665L761.089 380.619L764.051 377.49H766.028L762.328 381.463L766.459 387H764.552L761.238 382.597ZM773.701 377.49L773.745 378.545C774.442 377.725 775.383 377.314 776.566 377.314C777.896 377.314 778.802 377.824 779.282 378.844C779.599 378.387 780.009 378.018 780.513 377.736C781.022 377.455 781.623 377.314 782.314 377.314C784.4 377.314 785.461 378.419 785.496 380.628V387H783.87V380.725C783.87 380.045 783.715 379.538 783.404 379.204C783.094 378.864 782.572 378.694 781.84 378.694C781.236 378.694 780.735 378.876 780.337 379.239C779.938 379.597 779.707 380.08 779.643 380.689V387H778.008V380.769C778.008 379.386 777.331 378.694 775.978 378.694C774.911 378.694 774.182 379.148 773.789 380.057V387H772.163V377.49H773.701ZM787.526 382.157C787.526 381.226 787.708 380.388 788.071 379.644C788.44 378.899 788.95 378.325 789.601 377.921C790.257 377.517 791.004 377.314 791.842 377.314C793.137 377.314 794.183 377.763 794.979 378.659C795.782 379.556 796.184 380.748 796.184 382.236V382.351C796.184 383.276 796.005 384.108 795.647 384.847C795.296 385.579 794.789 386.15 794.127 386.561C793.471 386.971 792.715 387.176 791.859 387.176C790.57 387.176 789.524 386.728 788.722 385.831C787.925 384.935 787.526 383.748 787.526 382.271V382.157ZM789.161 382.351C789.161 383.405 789.404 384.252 789.891 384.891C790.383 385.529 791.039 385.849 791.859 385.849C792.686 385.849 793.342 385.526 793.828 384.882C794.314 384.231 794.558 383.323 794.558 382.157C794.558 381.114 794.309 380.271 793.811 379.626C793.318 378.976 792.662 378.65 791.842 378.65C791.039 378.65 790.392 378.97 789.899 379.608C789.407 380.247 789.161 381.161 789.161 382.351ZM797.827 382.166C797.827 380.707 798.173 379.535 798.864 378.65C799.556 377.76 800.461 377.314 801.58 377.314C802.693 377.314 803.575 377.695 804.226 378.457V373.5H805.852V387H804.357L804.278 385.98C803.628 386.777 802.723 387.176 801.562 387.176C800.461 387.176 799.562 386.725 798.864 385.822C798.173 384.92 797.827 383.742 797.827 382.289V382.166ZM799.453 382.351C799.453 383.429 799.676 384.272 800.121 384.882C800.566 385.491 801.182 385.796 801.967 385.796C802.998 385.796 803.751 385.333 804.226 384.407V380.039C803.739 379.143 802.992 378.694 801.984 378.694C801.188 378.694 800.566 379.002 800.121 379.617C799.676 380.232 799.453 381.144 799.453 382.351ZM812.329 387.176C811.04 387.176 809.991 386.754 809.183 385.91C808.374 385.061 807.97 383.927 807.97 382.509V382.21C807.97 381.267 808.148 380.426 808.506 379.688C808.869 378.943 809.373 378.363 810.018 377.947C810.668 377.525 811.371 377.314 812.127 377.314C813.363 377.314 814.324 377.722 815.01 378.536C815.695 379.351 816.038 380.517 816.038 382.034V382.711H809.596C809.619 383.648 809.892 384.407 810.413 384.987C810.94 385.562 811.608 385.849 812.417 385.849C812.991 385.849 813.478 385.731 813.876 385.497C814.274 385.263 814.623 384.952 814.922 384.565L815.915 385.339C815.118 386.563 813.923 387.176 812.329 387.176ZM812.127 378.65C811.471 378.65 810.92 378.891 810.475 379.371C810.029 379.846 809.754 380.514 809.648 381.375H814.412V381.252C814.365 380.426 814.143 379.787 813.744 379.336C813.346 378.879 812.807 378.65 812.127 378.65Z" fill="black"/>
<rect x="836" y="365" width="105" height="33" rx="13" fill="#F2F2F2"/>
<path d="M228.073 384.478C228.073 384.038 227.906 383.698 227.572 383.458C227.244 383.212 226.667 383.001 225.841 382.825C225.021 382.649 224.367 382.438 223.881 382.192C223.4 381.946 223.043 381.653 222.809 381.313C222.58 380.974 222.466 380.569 222.466 380.101C222.466 379.321 222.794 378.662 223.45 378.123C224.112 377.584 224.956 377.314 225.981 377.314C227.06 377.314 227.933 377.593 228.601 378.149C229.274 378.706 229.611 379.418 229.611 380.285H227.977C227.977 379.84 227.786 379.456 227.405 379.134C227.03 378.812 226.556 378.65 225.981 378.65C225.39 378.65 224.927 378.779 224.593 379.037C224.259 379.295 224.092 379.632 224.092 380.048C224.092 380.44 224.247 380.736 224.558 380.936C224.868 381.135 225.428 381.325 226.236 381.507C227.051 381.688 227.71 381.905 228.214 382.157C228.718 382.409 229.09 382.714 229.33 383.071C229.576 383.423 229.699 383.854 229.699 384.363C229.699 385.213 229.359 385.896 228.68 386.411C228 386.921 227.118 387.176 226.034 387.176C225.272 387.176 224.599 387.041 224.013 386.771C223.427 386.502 222.967 386.127 222.633 385.646C222.305 385.16 222.141 384.636 222.141 384.073H223.767C223.796 384.618 224.013 385.052 224.417 385.374C224.827 385.69 225.366 385.849 226.034 385.849C226.649 385.849 227.142 385.726 227.511 385.479C227.886 385.228 228.073 384.894 228.073 384.478ZM234.023 375.188V377.49H235.799V378.747H234.023V384.645C234.023 385.025 234.103 385.312 234.261 385.506C234.419 385.693 234.688 385.787 235.069 385.787C235.257 385.787 235.515 385.752 235.843 385.682V387C235.415 387.117 234.999 387.176 234.595 387.176C233.868 387.176 233.32 386.956 232.951 386.517C232.582 386.077 232.397 385.453 232.397 384.645V378.747H230.666V377.49H232.397V375.188H234.023ZM243.577 387C243.483 386.812 243.407 386.479 243.349 385.998C242.593 386.783 241.69 387.176 240.642 387.176C239.704 387.176 238.934 386.912 238.33 386.385C237.732 385.852 237.434 385.178 237.434 384.363C237.434 383.373 237.809 382.605 238.559 382.061C239.314 381.51 240.375 381.234 241.74 381.234H243.322V380.487C243.322 379.919 243.152 379.468 242.812 379.134C242.473 378.794 241.972 378.624 241.31 378.624C240.729 378.624 240.243 378.771 239.851 379.063C239.458 379.356 239.262 379.711 239.262 380.127H237.627C237.627 379.652 237.794 379.195 238.128 378.756C238.468 378.311 238.925 377.959 239.499 377.701C240.079 377.443 240.715 377.314 241.406 377.314C242.502 377.314 243.36 377.59 243.981 378.141C244.603 378.686 244.925 379.438 244.948 380.399V384.776C244.948 385.649 245.06 386.344 245.282 386.859V387H243.577ZM240.879 385.761C241.389 385.761 241.872 385.629 242.329 385.365C242.786 385.102 243.117 384.759 243.322 384.337V382.386H242.048C240.056 382.386 239.06 382.969 239.06 384.135C239.06 384.645 239.229 385.043 239.569 385.33C239.909 385.617 240.346 385.761 240.879 385.761ZM252.094 378.949C251.848 378.908 251.581 378.888 251.294 378.888C250.228 378.888 249.504 379.342 249.123 380.25V387H247.497V377.49H249.079L249.105 378.589C249.639 377.739 250.395 377.314 251.373 377.314C251.689 377.314 251.93 377.355 252.094 377.438V378.949ZM256.242 375.188V377.49H258.018V378.747H256.242V384.645C256.242 385.025 256.321 385.312 256.479 385.506C256.638 385.693 256.907 385.787 257.288 385.787C257.476 385.787 257.733 385.752 258.062 385.682V387C257.634 387.117 257.218 387.176 256.813 387.176C256.087 387.176 255.539 386.956 255.17 386.517C254.801 386.077 254.616 385.453 254.616 384.645V378.747H252.885V377.49H254.616V375.188H256.242Z" fill="black"/>
<path d="M313.235 379.949C312.989 379.908 312.723 379.888 312.436 379.888C311.369 379.888 310.646 380.342 310.265 381.25V388H308.639V378.49H310.221L310.247 379.589C310.78 378.739 311.536 378.314 312.515 378.314C312.831 378.314 313.071 378.355 313.235 378.438V379.949ZM318.509 388.176C317.22 388.176 316.171 387.754 315.362 386.91C314.554 386.061 314.149 384.927 314.149 383.509V383.21C314.149 382.267 314.328 381.426 314.686 380.688C315.049 379.943 315.553 379.363 316.197 378.947C316.848 378.525 317.551 378.314 318.307 378.314C319.543 378.314 320.504 378.722 321.189 379.536C321.875 380.351 322.218 381.517 322.218 383.034V383.711H315.775C315.799 384.648 316.071 385.407 316.593 385.987C317.12 386.562 317.788 386.849 318.597 386.849C319.171 386.849 319.657 386.731 320.056 386.497C320.454 386.263 320.803 385.952 321.102 385.565L322.095 386.339C321.298 387.563 320.103 388.176 318.509 388.176ZM318.307 379.65C317.65 379.65 317.1 379.891 316.654 380.371C316.209 380.846 315.934 381.514 315.828 382.375H320.592V382.252C320.545 381.426 320.322 380.787 319.924 380.336C319.525 379.879 318.986 379.65 318.307 379.65ZM329.645 385.478C329.645 385.038 329.478 384.698 329.144 384.458C328.815 384.212 328.238 384.001 327.412 383.825C326.592 383.649 325.938 383.438 325.452 383.192C324.972 382.946 324.614 382.653 324.38 382.313C324.151 381.974 324.037 381.569 324.037 381.101C324.037 380.321 324.365 379.662 325.021 379.123C325.684 378.584 326.527 378.314 327.553 378.314C328.631 378.314 329.504 378.593 330.172 379.149C330.846 379.706 331.183 380.418 331.183 381.285H329.548C329.548 380.84 329.357 380.456 328.977 380.134C328.602 379.812 328.127 379.65 327.553 379.65C326.961 379.65 326.498 379.779 326.164 380.037C325.83 380.295 325.663 380.632 325.663 381.048C325.663 381.44 325.818 381.736 326.129 381.936C326.439 382.135 326.999 382.325 327.808 382.507C328.622 382.688 329.281 382.905 329.785 383.157C330.289 383.409 330.661 383.714 330.901 384.071C331.147 384.423 331.271 384.854 331.271 385.363C331.271 386.213 330.931 386.896 330.251 387.411C329.571 387.921 328.689 388.176 327.605 388.176C326.844 388.176 326.17 388.041 325.584 387.771C324.998 387.502 324.538 387.127 324.204 386.646C323.876 386.16 323.712 385.636 323.712 385.073H325.338C325.367 385.618 325.584 386.052 325.988 386.374C326.398 386.69 326.938 386.849 327.605 386.849C328.221 386.849 328.713 386.726 329.082 386.479C329.457 386.228 329.645 385.894 329.645 385.478ZM337.335 388.176C336.046 388.176 334.997 387.754 334.188 386.91C333.38 386.061 332.976 384.927 332.976 383.509V383.21C332.976 382.267 333.154 381.426 333.512 380.688C333.875 379.943 334.379 379.363 335.023 378.947C335.674 378.525 336.377 378.314 337.133 378.314C338.369 378.314 339.33 378.722 340.016 379.536C340.701 380.351 341.044 381.517 341.044 383.034V383.711H334.602C334.625 384.648 334.897 385.407 335.419 385.987C335.946 386.562 336.614 386.849 337.423 386.849C337.997 386.849 338.483 386.731 338.882 386.497C339.28 386.263 339.629 385.952 339.928 385.565L340.921 386.339C340.124 387.563 338.929 388.176 337.335 388.176ZM337.133 379.65C336.477 379.65 335.926 379.891 335.48 380.371C335.035 380.846 334.76 381.514 334.654 382.375H339.418V382.252C339.371 381.426 339.148 380.787 338.75 380.336C338.352 379.879 337.812 379.65 337.133 379.65ZM345.14 376.188V378.49H346.915V379.747H345.14V385.645C345.14 386.025 345.219 386.312 345.377 386.506C345.535 386.693 345.805 386.787 346.186 386.787C346.373 386.787 346.631 386.752 346.959 386.682V388C346.531 388.117 346.115 388.176 345.711 388.176C344.984 388.176 344.437 387.956 344.067 387.517C343.698 387.077 343.514 386.453 343.514 385.645V379.747H341.782V378.49H343.514V376.188H345.14Z" fill="black"/>
<path d="M871.589 375.188V377.49H873.364V378.747H871.589V384.645C871.589 385.025 871.668 385.312 871.826 385.506C871.984 385.693 872.254 385.787 872.635 385.787C872.822 385.787 873.08 385.752 873.408 385.682V387C872.98 387.117 872.564 387.176 872.16 387.176C871.434 387.176 870.886 386.956 870.517 386.517C870.147 386.077 869.963 385.453 869.963 384.645V378.747H868.231V377.49H869.963V375.188H871.589ZM877.038 387H875.412V377.49H877.038V387ZM875.28 374.968C875.28 374.704 875.359 374.481 875.518 374.3C875.682 374.118 875.922 374.027 876.238 374.027C876.555 374.027 876.795 374.118 876.959 374.3C877.123 374.481 877.205 374.704 877.205 374.968C877.205 375.231 877.123 375.451 876.959 375.627C876.795 375.803 876.555 375.891 876.238 375.891C875.922 375.891 875.682 375.803 875.518 375.627C875.359 375.451 875.28 375.231 875.28 374.968ZM881.178 377.49L881.222 378.545C881.919 377.725 882.859 377.314 884.043 377.314C885.373 377.314 886.278 377.824 886.759 378.844C887.075 378.387 887.485 378.018 887.989 377.736C888.499 377.455 889.1 377.314 889.791 377.314C891.877 377.314 892.938 378.419 892.973 380.628V387H891.347V380.725C891.347 380.045 891.191 379.538 890.881 379.204C890.57 378.864 890.049 378.694 889.316 378.694C888.713 378.694 888.212 378.876 887.813 379.239C887.415 379.597 887.184 380.08 887.119 380.689V387H885.484V380.769C885.484 379.386 884.808 378.694 883.454 378.694C882.388 378.694 881.658 379.148 881.266 380.057V387H879.64V377.49H881.178ZM899.38 387.176C898.091 387.176 897.042 386.754 896.233 385.91C895.425 385.061 895.021 383.927 895.021 382.509V382.21C895.021 381.267 895.199 380.426 895.557 379.688C895.92 378.943 896.424 378.363 897.068 377.947C897.719 377.525 898.422 377.314 899.178 377.314C900.414 377.314 901.375 377.722 902.061 378.536C902.746 379.351 903.089 380.517 903.089 382.034V382.711H896.646C896.67 383.648 896.942 384.407 897.464 384.987C897.991 385.562 898.659 385.849 899.468 385.849C900.042 385.849 900.528 385.731 900.927 385.497C901.325 385.263 901.674 384.952 901.973 384.565L902.966 385.339C902.169 386.563 900.974 387.176 899.38 387.176ZM899.178 378.65C898.521 378.65 897.971 378.891 897.525 379.371C897.08 379.846 896.805 380.514 896.699 381.375H901.463V381.252C901.416 380.426 901.193 379.787 900.795 379.336C900.396 378.879 899.857 378.65 899.178 378.65ZM909.575 378.949C909.329 378.908 909.062 378.888 908.775 378.888C907.709 378.888 906.985 379.342 906.604 380.25V387H904.979V377.49H906.561L906.587 378.589C907.12 377.739 907.876 377.314 908.854 377.314C909.171 377.314 909.411 377.355 909.575 377.438V378.949Z" fill="black"/>
</svg>
